HIERARCHY
ROOT hip
{
	OFFSET 0.000000 0.000000 0.000000
	CHANNELS 6 Xposition Yposition Zposition Xrotation Zrotation Yrotation 
	JOINT abdomen
	{
		OFFSET 0.000000 3.422050 0.000000
		CHANNELS 3 Xrotation Zrotation Yrotation 
		JOINT chest
		{
			OFFSET 0.000000 8.486693 -0.6844110
			CHANNELS 3 Xrotation Zrotation Yrotation 
			JOINT neck
			{
				OFFSET 0.000000 10.26616 -0.2737640
				CHANNELS 3 Xrotation Zrotation Yrotation 
				JOINT head
				{
					OFFSET 0.000000 3.148285 0.000000
					CHANNELS 3 Xrotation Zrotation Yrotation 
					End Site
					{
						OFFSET 0.000000 3.148289 0.000000
					}
				}
			}
			JOINT lCollar
			{
				OFFSET 3.422053 6.707223 -0.8212930
				CHANNELS 3 Yrotation Zrotation Xrotation 
				JOINT lShldr
				{
					OFFSET 3.285171 0.000000 0.000000
					CHANNELS 3 Zrotation Yrotation Xrotation 
					JOINT lForeArm
					{
						OFFSET 10.12928 0.000000 0.000000
						CHANNELS 3 Yrotation Zrotation Xrotation 
						JOINT lHand
						{
							OFFSET 8.486692 0.000000 0.000000
							CHANNELS 3 Zrotation Yrotation Xrotation 
							End Site
							{
								OFFSET 4.106464 0.000000 0.000000
							}
						}
					}
				}
			}
			JOINT rCollar
			{
				OFFSET -3.558935 6.707223 -0.8212930
				CHANNELS 3 Yrotation Zrotation Xrotation 
				JOINT rShldr
				{
					OFFSET -3.148289 0.000000 0.000000
					CHANNELS 3 Zrotation Yrotation Xrotation 
					JOINT rForeArm
					{
						OFFSET -10.26616 0.000000 0.000000
						CHANNELS 3 Yrotation Zrotation Xrotation 
						JOINT rHand
						{
							OFFSET -8.349810 0.000000 0.000000
							CHANNELS 3 Zrotation Yrotation Xrotation 
							End Site
							{
								OFFSET -4.106464 0.000000 0.000000
							}
						}
					}
				}
			}
		}
	}
	JOINT lThigh
	{
		OFFSET 5.338403 -1.642589 1.368821
		CHANNELS 3 Xrotation Zrotation Yrotation 
		JOINT lShin
		{
			OFFSET -2.053232 -20.12167 0.000000
			CHANNELS 3 Xrotation Zrotation Yrotation 
			JOINT lFoot
			{
				OFFSET 0.000000 -19.30038 -1.231939
				CHANNELS 3 Xrotation Yrotation Zrotation 
				End Site
				{
					OFFSET 0.000000 -2.463878 4.653993
				}
			}
		}
	}
	JOINT rThigh
	{
		OFFSET -5.338403 -1.642589 1.368821
		CHANNELS 3 Xrotation Zrotation Yrotation 
		JOINT rShin
		{
			OFFSET 2.053232 -20.12167 0.000000
			CHANNELS 3 Xrotation Zrotation Yrotation 
			JOINT rFoot
			{
				OFFSET 0.000000 -19.30038 -1.231939
				CHANNELS 3 Xrotation Yrotation Zrotation 
				End Site
				{
					OFFSET 0.000000 -2.463878 4.653993
				}
			}
		}
	}
}
MOTION
Frames:	16
Frame Time:	0.03333333
20.33333 43.52850 0.000000 1.000000 0.000000 0.000000 1.000000 0.000000 -49.46667 1.000000 0.000000 0.000000 1.000000 0.000000 0.000000 1.000000 0.000000 41.06667 0.000000 0.000000 1.000000 -74.00000 -68.73333 -1.000000 -117.1333 14.00000 0.000000 0.000000 0.000000 -90.00000 0.000000 0.000000 1.000000 74.00000 68.73333 -1.000000 117.1333 -14.00000 0.000000 0.000000 0.000000 -90.00000 -11.00000 1.333333 0.8666667 25.00000 0.000000 0.000000 -14.00000 0.000000 0.000000 -119.2667 -1.333333 -0.8666667 127.6667 0.000000 0.000000 -14.00000 0.000000 0.000000 
19.66667 43.52850 0.000000 1.000000 0.000000 0.000000 1.000000 0.000000 -45.93333 1.000000 0.000000 0.000000 1.000000 0.000000 0.000000 1.000000 0.000000 38.13334 0.000000 0.000000 1.000000 -74.00000 -72.46667 -1.000000 -113.2667 14.00000 0.000000 0.000000 0.000000 -90.00000 0.000000 0.000000 1.000000 74.00000 72.46667 -1.000000 113.2667 -14.00000 0.000000 0.000000 0.000000 -90.00000 -11.00000 2.666667 1.733333 25.00000 0.000000 0.000000 -14.00000 0.000000 0.000000 -111.5333 -2.666667 -1.733333 120.3333 0.000000 0.000000 -14.00000 0.000000 0.000000 
19.00000 43.52850 0.000000 1.000000 0.000000 0.000000 1.000000 0.000000 -42.40000 1.000000 0.000000 0.000000 1.000000 0.000000 0.000000 1.000000 0.000000 35.20000 0.000000 0.000000 1.000000 -74.00000 -76.20000 -1.000000 -109.4000 14.00000 0.000000 0.000000 0.000000 -90.00000 0.000000 0.000000 1.000000 74.00000 76.20000 -1.000000 109.4000 -14.00000 0.000000 0.000000 0.000000 -90.00000 -11.00000 4.000000 2.600000 25.00000 0.000000 0.000000 -14.00000 0.000000 0.000000 -103.8000 -4.000000 -2.600000 113.0000 0.000000 0.000000 -14.00000 0.000000 0.000000 
18.33333 43.52850 0.000000 1.000000 0.000000 0.000000 1.000000 0.000000 -38.86666 1.000000 0.000000 0.000000 1.000000 0.000000 0.000000 1.000000 0.000000 32.26667 0.000000 0.000000 1.000000 -74.00000 -79.93333 -1.000000 -105.5333 14.00000 0.000000 0.000000 0.000000 -90.00000 0.000000 0.000000 1.000000 74.00000 79.93333 -1.000000 105.5333 -14.00000 0.000000 0.000000 0.000000 -90.00000 -11.00000 5.333333 3.466667 25.00000 0.000000 0.000000 -14.00000 0.000000 0.000000 -96.06667 -5.333333 -3.466667 105.6667 0.000000 0.000000 -14.00000 0.000000 0.000000 
17.66667 43.52851 0.000000 1.000000 0.000000 0.000000 1.000000 0.000000 -35.33333 1.000000 0.000000 0.000000 1.000000 0.000000 0.000000 1.000000 0.000000 29.33333 0.000000 0.000000 1.000000 -74.00000 -83.66666 -1.000000 -101.6667 14.00000 0.000000 0.000000 0.000000 -90.00000 0.000000 0.000000 1.000000 74.00000 83.66666 -1.000000 101.6667 -14.00000 0.000000 0.000000 0.000000 -90.00000 -11.00000 6.666667 4.333333 25.00000 0.000000 0.000000 -14.00000 0.000000 0.000000 -88.33334 -6.666667 -4.333333 98.33334 0.000000 0.000000 -14.00000 0.000000 0.000000 
17.00000 43.52851 0.000000 1.000000 0.000000 0.000000 1.000000 0.000000 -31.80000 1.000000 0.000000 0.000000 1.000000 0.000000 0.000000 1.000000 0.000000 26.40000 0.000000 0.000000 1.000000 -74.00000 -87.40000 -1.000000 -97.80000 14.00000 0.000000 0.000000 0.000000 -90.00000 0.000000 0.000000 1.000000 74.00000 87.40000 -1.000000 97.80000 -14.00000 0.000000 0.000000 0.000000 -90.00000 -11.00000 8.000000 5.200000 25.00000 0.000000 0.000000 -14.00000 0.000000 0.000000 -80.60000 -8.000000 -5.200000 91.00000 0.000000 0.000000 -14.00000 0.000000 0.000000 
16.33333 43.52851 0.000000 1.000000 0.000000 0.000000 1.000000 0.000000 -28.26667 1.000000 0.000000 0.000000 1.000000 0.000000 0.000000 1.000000 0.000000 23.46667 0.000000 0.000000 1.000000 -74.00000 -91.13333 -1.000000 -93.93333 14.00000 0.000000 0.000000 0.000000 -90.00000 0.000000 0.000000 1.000000 74.00000 91.13333 -1.000000 93.93333 -14.00000 0.000000 0.000000 0.000000 -90.00000 -11.00000 9.333333 6.066667 25.00000 0.000000 0.000000 -14.00000 0.000000 0.000000 -72.86667 -9.333333 -6.066667 83.66666 0.000000 0.000000 -14.00000 0.000000 0.000000 
15.66667 43.52851 0.000000 1.000000 0.000000 0.000000 1.000000 0.000000 -24.73333 1.000000 0.000000 0.000000 1.000000 0.000000 0.000000 1.000000 0.000000 20.53333 0.000000 0.000000 1.000000 -74.00000 -94.86667 -1.000000 -90.06667 14.00000 0.000000 0.000000 0.000000 -90.00000 0.000000 0.000000 1.000000 74.00000 94.86667 -1.000000 90.06667 -14.00000 0.000000 0.000000 0.000000 -90.00000 -11.00000 10.66667 6.933333 25.00000 0.000000 0.000000 -14.00000 0.000000 0.000000 -65.13333 -10.66667 -6.933333 76.33334 0.000000 0.000000 -14.00000 0.000000 0.000000 
15.00000 43.52851 0.000000 1.000000 0.000000 0.000000 1.000000 0.000000 -21.20000 1.000000 0.000000 0.000000 1.000000 0.000000 0.000000 1.000000 0.000000 17.60000 0.000000 0.000000 1.000000 -74.00000 -98.60000 -1.000000 -86.20000 14.00000 0.000000 0.000000 0.000000 -90.00000 0.000000 0.000000 1.000000 74.00000 98.60000 -1.000000 86.20000 -14.00000 0.000000 0.000000 0.000000 -90.00000 -11.00000 12.00000 7.800000 25.00000 0.000000 0.000000 -14.00000 0.000000 0.000000 -57.40000 -12.00000 -7.800000 69.00000 0.000000 0.000000 -14.00000 0.000000 0.000000 
14.33333 43.52851 0.000000 1.000000 0.000000 0.000000 1.000000 0.000000 -17.66667 1.000000 0.000000 0.000000 1.000000 0.000000 0.000000 1.000000 0.000000 14.66667 0.000000 0.000000 1.000000 -74.00000 -102.3333 -1.000000 -82.33334 14.00000 0.000000 0.000000 0.000000 -90.00000 0.000000 0.000000 1.000000 74.00000 102.3333 -1.000000 82.33334 -14.00000 0.000000 0.000000 0.000000 -90.00000 -11.00000 13.33333 8.666667 25.00000 0.000000 0.000000 -14.00000 0.000000 0.000000 -49.66667 -13.33333 -8.666667 61.66667 0.000000 0.000000 -14.00000 0.000000 0.000000 
13.66667 43.52851 0.000000 1.000000 0.000000 0.000000 1.000000 0.000000 -14.13333 1.000000 0.000000 0.000000 1.000000 0.000000 0.000000 1.000000 0.000000 11.73333 0.000000 0.000000 1.000000 -74.00000 -106.0667 -1.000000 -78.46667 14.00000 0.000000 0.000000 0.000000 -90.00000 0.000000 0.000000 1.000000 74.00000 106.0667 -1.000000 78.46667 -14.00000 0.000000 0.000000 0.000000 -90.00000 -11.00000 14.66667 9.533334 25.00000 0.000000 0.000000 -14.00000 0.000000 0.000000 -41.93333 -14.66667 -9.533334 54.33333 0.000000 0.000000 -14.00000 0.000000 0.000000 
13.00000 43.52851 0.000000 1.000000 0.000000 0.000000 1.000000 0.000000 -10.60000 1.000000 0.000000 0.000000 1.000000 0.000000 0.000000 1.000000 0.000000 8.800000 0.000000 0.000000 1.000000 -74.00000 -109.8000 -1.000000 -74.60000 14.00000 0.000000 0.000000 0.000000 -90.00000 0.000000 0.000000 1.000000 74.00000 109.8000 -1.000000 74.60000 -14.00000 0.000000 0.000000 0.000000 -90.00000 -11.00000 16.00000 10.40000 25.00000 0.000000 0.000000 -14.00000 0.000000 0.000000 -34.20000 -16.00000 -10.40000 47.00000 0.000000 0.000000 -14.00000 0.000000 0.000000 
12.33333 43.52851 0.000000 1.000000 0.000000 0.000000 1.000000 0.000000 -7.066667 1.000000 0.000000 0.000000 1.000000 0.000000 0.000000 1.000000 0.000000 5.866667 0.000000 0.000000 1.000000 -74.00000 -113.5333 -1.000000 -70.73333 14.00000 0.000000 0.000000 0.000000 -90.00000 0.000000 0.000000 1.000000 74.00000 113.5333 -1.000000 70.73333 -14.00000 0.000000 0.000000 0.000000 -90.00000 -11.00000 17.33333 11.26667 25.00000 0.000000 0.000000 -14.00000 0.000000 0.000000 -26.46667 -17.33333 -11.26667 39.66667 0.000000 0.000000 -14.00000 0.000000 0.000000 
11.66667 43.52852 0.000000 1.000000 0.000000 0.000000 1.000000 0.000000 -3.533333 1.000000 0.000000 0.000000 1.000000 0.000000 0.000000 1.000000 0.000000 2.933333 0.000000 0.000000 1.000000 -74.00000 -117.2667 -1.000000 -66.86667 14.00000 0.000000 0.000000 0.000000 -90.00000 0.000000 0.000000 1.000000 74.00000 117.2667 -1.000000 66.86667 -14.00000 0.000000 0.000000 0.000000 -90.00000 -11.00000 18.66667 12.13333 25.00000 0.000000 0.000000 -14.00000 0.000000 0.000000 -18.73333 -18.66667 -12.13333 32.33333 0.000000 0.000000 -14.00000 0.000000 0.000000 
11.00000 43.52852 0.000000 1.000000 0.000000 0.000000 1.000000 0.000000 0.000000 1.000000 0.000000 0.000000 1.000000 0.000000 0.000000 1.000000 0.000000 0.000000 0.000000 0.000000 1.000000 -74.00000 -121.0000 -1.000000 -63.00000 14.00000 0.000000 0.000000 0.000000 -90.00000 0.000000 0.000000 1.000000 74.00000 121.0000 -1.000000 63.00000 -14.00000 0.000000 0.000000 0.000000 -90.00000 -11.00000 20.00000 13.00000 25.00000 0.000000 0.000000 -14.00000 0.000000 0.000000 -11.00000 -20.00000 -13.00000 25.00000 0.000000 0.000000 -14.00000 0.000000 0.000000 
10.26667 43.52852 0.000000 1.000000 0.000000 0.000000 1.000000 0.000000 3.533333 1.000000 0.000000 0.000000 1.000000 0.000000 0.000000 1.000000 0.000000 -2.933333 0.000000 0.000000 1.000000 -74.00000 -117.2667 -1.000000 -66.86667 14.00000 0.000000 0.000000 0.000000 -90.00000 0.000000 0.000000 1.000000 74.00000 117.2667 -1.000000 66.86667 -14.00000 0.000000 0.000000 0.000000 -90.00000 -18.73333 18.66667 12.13333 32.33333 0.000000 0.000000 -14.00000 0.000000 0.000000 -11.00000 -18.66667 -12.13333 25.00000 0.000000 0.000000 -14.00000 0.000000 0.000000 
